<svg width="876" height="827" viewBox="0 0 876 827" fill="none" xmlns="http://www.w3.org/2000/svg">
<circle cx="562.24" cy="435.88" r="0.5" transform="rotate(32.678 562.24 435.88)" fill="white" fill-opacity="0.4"/>
<circle cx="295.225" cy="581.948" r="0.612987" transform="rotate(32.678 295.225 581.948)" fill="white" fill-opacity="0.5"/>
<circle cx="617.661" cy="699.535" r="0.5" transform="rotate(32.678 617.661 699.535)" fill="white" fill-opacity="0.3"/>
<circle cx="46.9767" cy="694.641" r="0.502405" transform="rotate(32.678 46.9767 694.641)" fill="white" fill-opacity="0.4"/>
<circle cx="202.868" cy="427.527" r="0.5" transform="rotate(32.678 202.868 427.527)" fill="white" fill-opacity="0.6"/>
<circle cx="236.129" cy="235.198" r="0.654911" transform="rotate(32.678 236.129 235.198)" fill="white" fill-opacity="0.3"/>
<circle cx="359.205" cy="606.456" r="0.698193" transform="rotate(32.678 359.205 606.456)" fill="white" fill-opacity="0.5"/>
<circle cx="81.3169" cy="126.206" r="0.5" transform="rotate(32.678 81.3169 126.206)" fill="white" fill-opacity="0.4"/>
<circle cx="46.5022" cy="400.886" r="0.5" transform="rotate(32.678 46.5022 400.886)" fill="white" fill-opacity="0.3"/>
<circle cx="173.785" cy="208.238" r="0.622316" transform="rotate(32.678 173.785 208.238)" fill="white" fill-opacity="0.4"/>
<circle cx="590.41" cy="727.201" r="0.5" transform="rotate(32.678 590.41 727.201)" fill="white" fill-opacity="0.5"/>
<circle cx="394.165" cy="657.158" r="0.5" transform="rotate(32.678 394.165 657.158)" fill="white" fill-opacity="0.4"/>
<circle cx="287.087" cy="326.003" r="0.573634" transform="rotate(32.678 287.087 326.003)" fill="white" fill-opacity="0.5"/>
<circle cx="204.586" cy="319.421" r="0.577696" transform="rotate(32.678 204.586 319.421)" fill="white" fill-opacity="0.6"/>
<circle cx="320.878" cy="732.517" r="0.5" transform="rotate(32.678 320.878 732.517)" fill="white" fill-opacity="0.5"/>
<circle cx="346.091" cy="665.702" r="0.648008" transform="rotate(32.678 346.091 665.702)" fill="white" fill-opacity="0.5"/>
<circle cx="515.286" cy="509.195" r="0.56153" transform="rotate(32.678 515.286 509.195)" fill="white" fill-opacity="0.5"/>
<circle cx="139.916" cy="255.307" r="0.527582" transform="rotate(32.678 139.916 255.307)" fill="white" fill-opacity="0.4"/>
<circle cx="709.352" cy="582.519" r="0.5" transform="rotate(32.678 709.352 582.519)" fill="white" fill-opacity="0.5"/>
<circle cx="154.184" cy="231.161" r="0.5" transform="rotate(32.678 154.184 231.161)" fill="white" fill-opacity="0.4"/>
<circle cx="607.255" cy="565.75" r="0.508851" transform="rotate(32.678 607.255 565.75)" fill="white" fill-opacity="0.4"/>
<circle cx="222.621" cy="239.627" r="0.676017" transform="rotate(32.678 222.621 239.627)" fill="white" fill-opacity="0.6"/>
<circle cx="353.245" cy="774.664" r="0.5" transform="rotate(32.678 353.245 774.664)" fill="white" fill-opacity="0.5"/>
<circle cx="130.813" cy="713.961" r="0.5" transform="rotate(32.678 130.813 713.961)" fill="white" fill-opacity="0.6"/>
<circle cx="37.3474" cy="133.662" r="0.51562" transform="rotate(32.678 37.3474 133.662)" fill="white" fill-opacity="0.3"/>
<circle cx="71.7089" cy="300.908" r="0.736917" transform="rotate(32.678 71.7089 300.908)" fill="white" fill-opacity="0.6"/>
<circle cx="488.249" cy="408.616" r="0.5" transform="rotate(32.678 488.249 408.616)" fill="white" fill-opacity="0.4"/>
<circle cx="13.0819" cy="595.8" r="0.60713" transform="rotate(32.678 13.0819 595.8)" fill="white" fill-opacity="0.4"/>
<circle cx="267.376" cy="308.665" r="0.622232" transform="rotate(32.678 267.376 308.665)" fill="white" fill-opacity="0.5"/>
<circle cx="267.824" cy="492.954" r="0.5" transform="rotate(32.678 267.824 492.954)" fill="white" fill-opacity="0.6"/>
<circle cx="662.765" cy="740.347" r="0.5" transform="rotate(32.678 662.765 740.347)" fill="white" fill-opacity="0.3"/>
<circle cx="29.8443" cy="728.866" r="0.560922" transform="rotate(32.678 29.8443 728.866)" fill="white" fill-opacity="0.6"/>
<circle cx="70.7228" cy="167.17" r="0.699715" transform="rotate(32.678 70.7228 167.17)" fill="white" fill-opacity="0.5"/>
<circle cx="189.293" cy="663.593" r="0.529863" transform="rotate(32.678 189.293 663.593)" fill="white" fill-opacity="0.5"/>
<circle cx="566.686" cy="731.25" r="0.717357" transform="rotate(32.678 566.686 731.25)" fill="white" fill-opacity="0.3"/>
<circle cx="557.692" cy="693.39" r="0.70595" transform="rotate(32.678 557.692 693.39)" fill="white" fill-opacity="0.6"/>
<circle cx="621.13" cy="503.356" r="0.5" transform="rotate(32.678 621.13 503.356)" fill="white" fill-opacity="0.5"/>
<circle cx="70.3388" cy="384.099" r="0.5" transform="rotate(32.678 70.3388 384.099)" fill="white" fill-opacity="0.3"/>
<circle cx="570.544" cy="748.911" r="0.5" transform="rotate(32.678 570.544 748.911)" fill="white" fill-opacity="0.5"/>
<circle cx="181.19" cy="454.196" r="0.651682" transform="rotate(32.678 181.19 454.196)" fill="white" fill-opacity="0.6"/>
<circle cx="378.29" cy="700.451" r="0.51211" transform="rotate(32.678 378.29 700.451)" fill="white" fill-opacity="0.4"/>
<circle cx="140.712" cy="818.923" r="0.503817" transform="rotate(32.678 140.712 818.923)" fill="white" fill-opacity="0.5"/>
<circle cx="59.5632" cy="288.38" r="0.749723" transform="rotate(32.678 59.5632 288.38)" fill="white" fill-opacity="0.6"/>
<circle cx="154.077" cy="552.075" r="0.676812" transform="rotate(32.678 154.077 552.075)" fill="white" fill-opacity="0.5"/>
<circle cx="756.649" cy="653.251" r="0.5" transform="rotate(32.678 756.649 653.251)" fill="white" fill-opacity="0.4"/>
<circle cx="468.139" cy="667.779" r="0.5" transform="rotate(32.678 468.139 667.779)" fill="white" fill-opacity="0.6"/>
<circle cx="496.768" cy="636.482" r="0.699671" transform="rotate(32.678 496.768 636.482)" fill="white" fill-opacity="0.6"/>
<circle cx="25.8669" cy="220.27" r="0.613193" transform="rotate(32.678 25.8669 220.27)" fill="white" fill-opacity="0.3"/>
<circle cx="497.162" cy="489.18" r="0.5" transform="rotate(32.678 497.162 489.18)" fill="white" fill-opacity="0.6"/>
<circle cx="128.186" cy="155.219" r="0.615095" transform="rotate(32.678 128.186 155.219)" fill="white" fill-opacity="0.5"/>
<circle cx="473.283" cy="581.984" r="0.507089" transform="rotate(32.678 473.283 581.984)" fill="white" fill-opacity="0.4"/>
<circle cx="502.122" cy="800.156" r="0.576308" transform="rotate(32.678 502.122 800.156)" fill="white" fill-opacity="0.5"/>
<circle cx="315.554" cy="383.43" r="0.541157" transform="rotate(32.678 315.554 383.43)" fill="white" fill-opacity="0.6"/>
<circle cx="24.4711" cy="157.551" r="0.575393" transform="rotate(32.678 24.4711 157.551)" fill="white" fill-opacity="0.4"/>
<circle cx="142.668" cy="519.726" r="0.608071" transform="rotate(32.678 142.668 519.726)" fill="white" fill-opacity="0.5"/>
<circle cx="311.486" cy="653.077" r="0.704303" transform="rotate(32.678 311.486 653.077)" fill="white" fill-opacity="0.4"/>
<circle cx="8.13727" cy="238.507" r="0.536546" transform="rotate(32.678 8.13727 238.507)" fill="white" fill-opacity="0.4"/>
<circle cx="272.816" cy="505.868" r="0.674273" transform="rotate(32.678 272.816 505.868)" fill="white" fill-opacity="0.6"/>
<circle cx="167.277" cy="592.624" r="0.681141" transform="rotate(32.678 167.277 592.624)" fill="white" fill-opacity="0.3"/>
<circle cx="192.18" cy="434.928" r="0.5" transform="rotate(32.678 192.18 434.928)" fill="white" fill-opacity="0.5"/>
<circle cx="217.133" cy="512.712" r="0.5" transform="rotate(32.678 217.133 512.712)" fill="white" fill-opacity="0.3"/>
<circle cx="298.351" cy="380.886" r="0.687658" transform="rotate(32.678 298.351 380.886)" fill="white" fill-opacity="0.4"/>
<circle cx="253.914" cy="522.049" r="0.5" transform="rotate(32.678 253.914 522.049)" fill="white" fill-opacity="0.5"/>
<circle cx="568.908" cy="545.927" r="0.528502" transform="rotate(32.678 568.908 545.927)" fill="white" fill-opacity="0.5"/>
<circle cx="105.37" cy="686.948" r="0.5" transform="rotate(32.678 105.37 686.948)" fill="white" fill-opacity="0.5"/>
<circle cx="309.301" cy="752.416" r="0.5" transform="rotate(32.678 309.301 752.416)" fill="white" fill-opacity="0.4"/>
<circle cx="703.633" cy="821.409" r="0.666017" transform="rotate(32.678 703.633 821.409)" fill="white" fill-opacity="0.4"/>
<circle cx="319.922" cy="317.276" r="0.5" transform="rotate(32.678 319.922 317.276)" fill="white" fill-opacity="0.3"/>
<circle cx="710.303" cy="679.646" r="0.740366" transform="rotate(32.678 710.303 679.646)" fill="white" fill-opacity="0.4"/>
<circle cx="133.603" cy="259.541" r="0.5" transform="rotate(32.678 133.603 259.541)" fill="white" fill-opacity="0.6"/>
<circle cx="422.717" cy="559.242" r="0.666648" transform="rotate(32.678 422.717 559.242)" fill="white" fill-opacity="0.6"/>
<circle cx="149.579" cy="425.455" r="0.527093" transform="rotate(32.678 149.579 425.455)" fill="white" fill-opacity="0.4"/>
<circle cx="170.334" cy="265.335" r="0.545328" transform="rotate(32.678 170.334 265.335)" fill="white" fill-opacity="0.6"/>
<circle cx="212.116" cy="383.715" r="0.629038" transform="rotate(32.678 212.116 383.715)" fill="white" fill-opacity="0.4"/>
<circle cx="19.1989" cy="315.654" r="0.5" transform="rotate(32.678 19.1989 315.654)" fill="white" fill-opacity="0.6"/>
<circle cx="574.462" cy="640.936" r="0.5" transform="rotate(32.678 574.462 640.936)" fill="white" fill-opacity="0.6"/>
<circle cx="419.363" cy="636.661" r="0.642742" transform="rotate(32.678 419.363 636.661)" fill="white" fill-opacity="0.4"/>
<circle cx="95.5076" cy="678.246" r="0.5" transform="rotate(32.678 95.5076 678.246)" fill="white" fill-opacity="0.5"/>
<circle cx="446.271" cy="670.385" r="0.5" transform="rotate(32.678 446.271 670.385)" fill="white" fill-opacity="0.4"/>
<circle cx="85.9827" cy="750.612" r="0.554277" transform="rotate(32.678 85.9827 750.612)" fill="white" fill-opacity="0.5"/>
<circle cx="396.508" cy="505.524" r="0.601689" transform="rotate(32.678 396.508 505.524)" fill="white" fill-opacity="0.4"/>
<circle cx="373.175" cy="756.558" r="0.5" transform="rotate(32.678 373.175 756.558)" fill="white" fill-opacity="0.5"/>
<circle cx="116.179" cy="620.462" r="0.700981" transform="rotate(32.678 116.179 620.462)" fill="white" fill-opacity="0.5"/>
<circle cx="265.194" cy="626.704" r="0.5" transform="rotate(32.678 265.194 626.704)" fill="white" fill-opacity="0.5"/>
<circle cx="50.7531" cy="450.168" r="0.686183" transform="rotate(32.678 50.7531 450.168)" fill="white" fill-opacity="0.4"/>
<circle cx="646.752" cy="524.566" r="0.518408" transform="rotate(32.678 646.752 524.566)" fill="white" fill-opacity="0.3"/>
<circle cx="643.7" cy="523.846" r="0.560663" transform="rotate(32.678 643.7 523.846)" fill="white" fill-opacity="0.4"/>
<circle cx="34.1705" cy="563.119" r="0.712693" transform="rotate(32.678 34.1705 563.119)" fill="white" fill-opacity="0.3"/>
<circle cx="467.378" cy="498.624" r="0.529359" transform="rotate(32.678 467.378 498.624)" fill="white" fill-opacity="0.5"/>
<circle cx="357.997" cy="634.06" r="0.585558" transform="rotate(32.678 357.997 634.06)" fill="white" fill-opacity="0.5"/>
<circle cx="495.581" cy="650.928" r="0.5" transform="rotate(32.678 495.581 650.928)" fill="white" fill-opacity="0.3"/>
<circle cx="426.46" cy="506.795" r="0.5" transform="rotate(32.678 426.46 506.795)" fill="white" fill-opacity="0.3"/>
<circle cx="498.447" cy="750.199" r="0.51071" transform="rotate(32.678 498.447 750.199)" fill="white" fill-opacity="0.4"/>
<circle cx="28.3001" cy="168.453" r="0.684471" transform="rotate(32.678 28.3001 168.453)" fill="white" fill-opacity="0.3"/>
<circle cx="28.6471" cy="282.698" r="0.659595" transform="rotate(32.678 28.6471 282.698)" fill="white" fill-opacity="0.4"/>
<circle cx="41.2194" cy="525.806" r="0.5" transform="rotate(32.678 41.2194 525.806)" fill="white" fill-opacity="0.5"/>
<circle cx="29.7549" cy="503.143" r="0.614026" transform="rotate(32.678 29.7549 503.143)" fill="white" fill-opacity="0.5"/>
<circle cx="224.584" cy="573.33" r="0.5" transform="rotate(32.678 224.584 573.33)" fill="white" fill-opacity="0.4"/>
<circle cx="668.485" cy="812.923" r="0.5" transform="rotate(32.678 668.485 812.923)" fill="white" fill-opacity="0.5"/>
<circle cx="602.144" cy="684.829" r="0.5" transform="rotate(32.678 602.144 684.829)" fill="white" fill-opacity="0.5"/>
<circle cx="339.402" cy="396.516" r="0.680121" transform="rotate(32.678 339.402 396.516)" fill="white" fill-opacity="0.4"/>
<circle cx="80.5891" cy="540.367" r="0.5" transform="rotate(32.678 80.5891 540.367)" fill="white" fill-opacity="0.5"/>
<circle cx="238.104" cy="694.867" r="0.5" transform="rotate(32.678 238.104 694.867)" fill="white" fill-opacity="0.5"/>
<circle cx="561.007" cy="599.219" r="0.651355" transform="rotate(32.678 561.007 599.219)" fill="white" fill-opacity="0.5"/>
<circle cx="44.5072" cy="491.156" r="0.559374" transform="rotate(32.678 44.5072 491.156)" fill="white" fill-opacity="0.4"/>
<circle cx="553.95" cy="798.857" r="0.5" transform="rotate(32.678 553.95 798.857)" fill="white" fill-opacity="0.4"/>
<circle cx="76.4994" cy="355.973" r="0.5" transform="rotate(32.678 76.4994 355.973)" fill="white" fill-opacity="0.4"/>
<circle cx="360.82" cy="418.357" r="0.5" transform="rotate(32.678 360.82 418.357)" fill="white" fill-opacity="0.5"/>
<circle cx="33.1194" cy="614.635" r="0.642402" transform="rotate(32.678 33.1194 614.635)" fill="white" fill-opacity="0.4"/>
<circle cx="361.54" cy="362.011" r="0.683974" transform="rotate(32.678 361.54 362.011)" fill="white" fill-opacity="0.4"/>
<circle cx="274.747" cy="806.286" r="0.5" transform="rotate(32.678 274.747 806.286)" fill="white" fill-opacity="0.3"/>
<circle cx="76.581" cy="343.093" r="0.614516" transform="rotate(32.678 76.581 343.093)" fill="white" fill-opacity="0.5"/>
<circle cx="243.558" cy="308.967" r="0.736799" transform="rotate(32.678 243.558 308.967)" fill="white" fill-opacity="0.6"/>
<circle cx="594.42" cy="622.961" r="0.594452" transform="rotate(32.678 594.42 622.961)" fill="white" fill-opacity="0.4"/>
<circle cx="287.876" cy="356.122" r="0.5" transform="rotate(32.678 287.876 356.122)" fill="white" fill-opacity="0.6"/>
<circle cx="352.893" cy="723.352" r="0.5" transform="rotate(32.678 352.893 723.352)" fill="white" fill-opacity="0.5"/>
<circle cx="432.76" cy="737.753" r="0.5" transform="rotate(32.678 432.76 737.753)" fill="white" fill-opacity="0.6"/>
<circle cx="509.536" cy="545.827" r="0.5" transform="rotate(32.678 509.536 545.827)" fill="white" fill-opacity="0.5"/>
<circle cx="303.653" cy="511.184" r="0.5" transform="rotate(32.678 303.653 511.184)" fill="white" fill-opacity="0.5"/>
<circle cx="217.501" cy="219.501" r="0.5" transform="rotate(32.678 217.501 219.501)" fill="white" fill-opacity="0.5"/>
<circle cx="313.312" cy="555.404" r="0.505851" transform="rotate(32.678 313.312 555.404)" fill="white" fill-opacity="0.6"/>
<circle cx="482.853" cy="480.001" r="0.5" transform="rotate(32.678 482.853 480.001)" fill="white" fill-opacity="0.6"/>
<circle cx="87.9303" cy="169.736" r="0.568928" transform="rotate(32.678 87.9303 169.736)" fill="white" fill-opacity="0.3"/>
<circle cx="155.578" cy="307.127" r="0.689612" transform="rotate(32.678 155.578 307.127)" fill="white" fill-opacity="0.5"/>
<circle cx="153.343" cy="462.564" r="0.730537" transform="rotate(32.678 153.343 462.564)" fill="white" fill-opacity="0.6"/>
<circle cx="244.572" cy="432.893" r="0.5" transform="rotate(32.678 244.572 432.893)" fill="white" fill-opacity="0.4"/>
<circle cx="685.845" cy="508.038" r="0.5" transform="rotate(32.678 685.845 508.038)" fill="white" fill-opacity="0.5"/>
<circle cx="118.466" cy="564.664" r="0.5" transform="rotate(32.678 118.466 564.664)" fill="white" fill-opacity="0.4"/>
<circle cx="246.322" cy="500.546" r="0.5" transform="rotate(32.678 246.322 500.546)" fill="white" fill-opacity="0.6"/>
<circle cx="118.674" cy="230.956" r="0.5" transform="rotate(32.678 118.674 230.956)" fill="white" fill-opacity="0.6"/>
<circle cx="150.075" cy="328.321" r="0.5" transform="rotate(32.678 150.075 328.321)" fill="white" fill-opacity="0.3"/>
<circle cx="542.003" cy="687.834" r="0.5" transform="rotate(32.678 542.003 687.834)" fill="white" fill-opacity="0.4"/>
<circle cx="103.98" cy="498.345" r="0.5" transform="rotate(32.678 103.98 498.345)" fill="white" fill-opacity="0.4"/>
<circle cx="61.1939" cy="792.861" r="0.5" transform="rotate(32.678 61.1939 792.861)" fill="white" fill-opacity="0.4"/>
<circle cx="699.896" cy="734.721" r="0.717014" transform="rotate(32.678 699.896 734.721)" fill="white" fill-opacity="0.4"/>
<circle cx="50.5866" cy="820.51" r="0.5" transform="rotate(32.678 50.5866 820.51)" fill="white" fill-opacity="0.4"/>
<circle cx="128.851" cy="178.144" r="0.552356" transform="rotate(32.678 128.851 178.144)" fill="white" fill-opacity="0.5"/>
<circle cx="106.551" cy="768.565" r="0.560416" transform="rotate(32.678 106.551 768.565)" fill="white" fill-opacity="0.5"/>
<circle cx="58.9813" cy="650.194" r="0.609416" transform="rotate(32.678 58.9813 650.194)" fill="white" fill-opacity="0.5"/>
<circle cx="461.913" cy="407.334" r="0.640165" transform="rotate(32.678 461.913 407.334)" fill="white" fill-opacity="0.4"/>
<circle cx="14.2625" cy="727.115" r="0.5" transform="rotate(32.678 14.2625 727.115)" fill="white" fill-opacity="0.6"/>
<circle cx="114.71" cy="285.704" r="0.722792" transform="rotate(32.678 114.71 285.704)" fill="white" fill-opacity="0.5"/>
<circle cx="156.02" cy="193.178" r="0.538109" transform="rotate(32.678 156.02 193.178)" fill="white" fill-opacity="0.6"/>
<circle cx="528.962" cy="684.46" r="0.70176" transform="rotate(32.678 528.962 684.46)" fill="white" fill-opacity="0.4"/>
<circle cx="54.853" cy="684.31" r="0.554496" transform="rotate(32.678 54.853 684.31)" fill="white" fill-opacity="0.5"/>
<circle cx="266.822" cy="813.084" r="0.5" transform="rotate(32.678 266.822 813.084)" fill="white" fill-opacity="0.5"/>
<circle cx="29.2135" cy="175.948" r="0.5" transform="rotate(32.678 29.2135 175.948)" fill="white" fill-opacity="0.6"/>
<circle cx="179.588" cy="821.282" r="0.5" transform="rotate(32.678 179.588 821.282)" fill="white" fill-opacity="0.4"/>
<circle cx="25.5614" cy="189.05" r="0.5" transform="rotate(32.678 25.5614 189.05)" fill="white" fill-opacity="0.5"/>
<circle cx="471.087" cy="472.528" r="0.561718" transform="rotate(32.678 471.087 472.528)" fill="white" fill-opacity="0.4"/>
<circle cx="156.584" cy="474.089" r="0.681498" transform="rotate(32.678 156.584 474.089)" fill="white" fill-opacity="0.3"/>
<circle cx="621.706" cy="598.769" r="0.5" transform="rotate(32.678 621.706 598.769)" fill="white" fill-opacity="0.5"/>
<circle cx="10.268" cy="765.157" r="0.677196" transform="rotate(32.678 10.268 765.157)" fill="white" fill-opacity="0.4"/>
<circle cx="675.706" cy="703.502" r="0.5" transform="rotate(32.678 675.706 703.502)" fill="white" fill-opacity="0.5"/>
<circle cx="147.464" cy="303.114" r="0.692697" transform="rotate(32.678 147.464 303.114)" fill="white" fill-opacity="0.5"/>
<circle cx="277.009" cy="604.581" r="0.5" transform="rotate(32.678 277.009 604.581)" fill="white" fill-opacity="0.6"/>
<circle cx="27.6224" cy="728.634" r="0.565393" transform="rotate(32.678 27.6224 728.634)" fill="white" fill-opacity="0.4"/>
<circle cx="292.32" cy="293.63" r="0.5" transform="rotate(32.678 292.32 293.63)" fill="white" fill-opacity="0.4"/>
<circle cx="493.411" cy="760.277" r="0.712746" transform="rotate(32.678 493.411 760.277)" fill="white" fill-opacity="0.3"/>
<circle cx="160.695" cy="817.625" r="0.622186" transform="rotate(32.678 160.695 817.625)" fill="white" fill-opacity="0.4"/>
<circle cx="559.113" cy="805.926" r="0.66231" transform="rotate(32.678 559.113 805.926)" fill="white" fill-opacity="0.3"/>
<circle cx="74.4505" cy="349.907" r="0.5" transform="rotate(32.678 74.4505 349.907)" fill="white" fill-opacity="0.6"/>
<circle cx="537.435" cy="617.219" r="0.52842" transform="rotate(32.678 537.435 617.219)" fill="white" fill-opacity="0.4"/>
<circle cx="381.638" cy="636.258" r="0.671731" transform="rotate(32.678 381.638 636.258)" fill="white" fill-opacity="0.4"/>
<circle cx="685.103" cy="607.358" r="0.5" transform="rotate(32.678 685.103 607.358)" fill="white" fill-opacity="0.4"/>
<circle cx="307.269" cy="762.993" r="0.5" transform="rotate(32.678 307.269 762.993)" fill="white" fill-opacity="0.4"/>
<circle cx="487.521" cy="822.777" r="0.5" transform="rotate(32.678 487.521 822.777)" fill="white" fill-opacity="0.6"/>
<circle cx="452.715" cy="375.168" r="0.53133" transform="rotate(32.678 452.715 375.168)" fill="white" fill-opacity="0.5"/>
<circle cx="350.555" cy="540.35" r="0.726094" transform="rotate(32.678 350.555 540.35)" fill="white" fill-opacity="0.6"/>
<circle cx="297.102" cy="358.598" r="0.60272" transform="rotate(32.678 297.102 358.598)" fill="white" fill-opacity="0.4"/>
<circle cx="143.407" cy="420.392" r="0.598136" transform="rotate(32.678 143.407 420.392)" fill="white" fill-opacity="0.5"/>
<circle cx="55.6698" cy="495.87" r="0.5" transform="rotate(32.678 55.6698 495.87)" fill="white" fill-opacity="0.4"/>
<circle cx="300.807" cy="365.617" r="0.510589" transform="rotate(32.678 300.807 365.617)" fill="white" fill-opacity="0.6"/>
<circle cx="739.977" cy="649.82" r="0.614091" transform="rotate(32.678 739.977 649.82)" fill="white" fill-opacity="0.3"/>
<circle cx="364.189" cy="622.644" r="0.633596" transform="rotate(32.678 364.189 622.644)" fill="white" fill-opacity="0.5"/>
<circle cx="489.279" cy="529.303" r="0.528207" transform="rotate(32.678 489.279 529.303)" fill="white" fill-opacity="0.5"/>
<circle cx="394.658" cy="669.355" r="0.5" transform="rotate(32.678 394.658 669.355)" fill="white" fill-opacity="0.5"/>
<circle cx="358.074" cy="435.604" r="0.5" transform="rotate(32.678 358.074 435.604)" fill="white" fill-opacity="0.6"/>
<circle cx="549.589" cy="583.4" r="0.5" transform="rotate(32.678 549.589 583.4)" fill="white" fill-opacity="0.6"/>
<circle cx="111.113" cy="179.774" r="0.501713" transform="rotate(32.678 111.113 179.774)" fill="white" fill-opacity="0.3"/>
<circle cx="314.167" cy="396.961" r="0.679195" transform="rotate(32.678 314.167 396.961)" fill="white" fill-opacity="0.5"/>
<circle cx="154.599" cy="580.974" r="0.719608" transform="rotate(32.678 154.599 580.974)" fill="white" fill-opacity="0.5"/>
<circle cx="112.802" cy="667.954" r="0.5" transform="rotate(32.678 112.802 667.954)" fill="white" fill-opacity="0.4"/>
<circle cx="45.0788" cy="178.996" r="0.5" transform="rotate(32.678 45.0788 178.996)" fill="white" fill-opacity="0.4"/>
<circle cx="233.261" cy="450.695" r="0.590848" transform="rotate(32.678 233.261 450.695)" fill="white" fill-opacity="0.6"/>
<circle cx="410.539" cy="765.253" r="0.644424" transform="rotate(32.678 410.539 765.253)" fill="white" fill-opacity="0.4"/>
<circle cx="72.4542" cy="456.738" r="0.5" transform="rotate(32.678 72.4542 456.738)" fill="white" fill-opacity="0.6"/>
<circle cx="31.9411" cy="440.256" r="0.5" transform="rotate(32.678 31.9411 440.256)" fill="white" fill-opacity="0.5"/>
<g filter="url(#filter0_d_35_4493)">
<circle cx="725.361" cy="559.718" r="0.6644" transform="rotate(32.678 725.361 559.718)" fill="white" fill-opacity="0.6" shape-rendering="crispEdges"/>
</g>
<circle cx="354.662" cy="741.391" r="0.728149" transform="rotate(32.678 354.662 741.391)" fill="white" fill-opacity="0.4"/>
<circle cx="58.3446" cy="647.279" r="0.5" transform="rotate(32.678 58.3446 647.279)" fill="white" fill-opacity="0.6"/>
<circle cx="542.535" cy="418.566" r="0.565405" transform="rotate(32.678 542.535 418.566)" fill="white" fill-opacity="0.6"/>
<circle cx="142.012" cy="437.202" r="0.5" transform="rotate(32.678 142.012 437.202)" fill="white" fill-opacity="0.5"/>
<circle cx="621.426" cy="739.968" r="0.5" transform="rotate(32.678 621.426 739.968)" fill="white" fill-opacity="0.4"/>
<circle cx="524.401" cy="570.807" r="0.5" transform="rotate(32.678 524.401 570.807)" fill="white" fill-opacity="0.6"/>
<circle cx="445.949" cy="635.774" r="0.541642" transform="rotate(32.678 445.949 635.774)" fill="white" fill-opacity="0.5"/>
<circle cx="425.432" cy="462.327" r="0.625519" transform="rotate(32.678 425.432 462.327)" fill="white" fill-opacity="0.4"/>
<circle cx="472.972" cy="610.381" r="0.577184" transform="rotate(32.678 472.972 610.381)" fill="white" fill-opacity="0.4"/>
<circle cx="231.891" cy="248.931" r="0.502316" transform="rotate(32.678 231.891 248.931)" fill="white" fill-opacity="0.4"/>
<circle cx="100.926" cy="388.274" r="0.5" transform="rotate(32.678 100.926 388.274)" fill="white" fill-opacity="0.6"/>
<circle cx="135.827" cy="259.779" r="0.5" transform="rotate(32.678 135.827 259.779)" fill="white" fill-opacity="0.3"/>
<circle cx="76.2998" cy="156.253" r="0.5" transform="rotate(32.678 76.2998 156.253)" fill="white" fill-opacity="0.6"/>
<circle cx="73.8801" cy="380.43" r="0.5" transform="rotate(32.678 73.8801 380.43)" fill="white" fill-opacity="0.5"/>
<circle cx="199.411" cy="511.104" r="0.714554" transform="rotate(32.678 199.411 511.104)" fill="white" fill-opacity="0.4"/>
<circle cx="202.973" cy="653.324" r="0.5" transform="rotate(32.678 202.973 653.324)" fill="white" fill-opacity="0.5"/>
<circle cx="611.622" cy="608.934" r="0.5" transform="rotate(32.678 611.622 608.934)" fill="white" fill-opacity="0.6"/>
<circle cx="61.8279" cy="765.942" r="0.5" transform="rotate(32.678 61.8279 765.942)" fill="white" fill-opacity="0.5"/>
<defs>
<filter id="filter0_d_35_4493" x="709.697" y="544.054" width="31.3289" height="31.329" filterUnits="userSpaceOnUse" color-interpolation-filters="sRGB">
<feFlood flood-opacity="0" result="BackgroundImageFix"/>
<feColorMatrix in="SourceAlpha" type="matrix" values="0 0 0 0 0 0 0 0 0 0 0 0 0 0 0 0 0 0 127 0" result="hardAlpha"/>
<feMorphology radius="3" operator="dilate" in="SourceAlpha" result="effect1_dropShadow_35_4493"/>
<feOffset/>
<feGaussianBlur stdDeviation="6"/>
<feComposite in2="hardAlpha" operator="out"/>
<feColorMatrix type="matrix" values="0 0 0 0 1 0 0 0 0 1 0 0 0 0 1 0 0 0 0.3 0"/>
<feBlend mode="normal" in2="BackgroundImageFix" result="effect1_dropShadow_35_4493"/>
<feBlend mode="normal" in="SourceGraphic" in2="effect1_dropShadow_35_4493" result="shape"/>
</filter>
</defs>
</svg>
