<svg width="1014" height="674" viewBox="0 0 1014 674" fill="none" xmlns="http://www.w3.org/2000/svg">
<circle cx="782.724" cy="64.6656" r="0.5" transform="rotate(-9.72162 782.724 64.6656)" fill="white" fill-opacity="0.4"/>
<circle cx="190.696" cy="529.321" r="0.511892" transform="rotate(-9.72162 190.696 529.321)" fill="white" fill-opacity="0.5"/>
<circle cx="252.452" cy="640.572" r="0.594269" transform="rotate(-9.72162 252.452 640.572)" fill="white" fill-opacity="0.5"/>
<circle cx="684.037" cy="352.578" r="0.612987" transform="rotate(-9.72162 684.037 352.578)" fill="white" fill-opacity="0.5"/>
<circle cx="1001.43" cy="221.994" r="0.5" transform="rotate(-9.72162 1001.43 221.994)" fill="white" fill-opacity="0.3"/>
<circle cx="576.704" cy="603.19" r="0.502405" transform="rotate(-9.72162 576.704 603.19)" fill="white" fill-opacity="0.4"/>
<circle cx="511.709" cy="300.821" r="0.5" transform="rotate(-9.72162 511.709 300.821)" fill="white" fill-opacity="0.6"/>
<circle cx="406.585" cy="136.366" r="0.654911" transform="rotate(-9.72162 406.585 136.366)" fill="white" fill-opacity="0.3"/>
<circle cx="747.809" cy="327.534" r="0.698193" transform="rotate(-9.72162 747.809 327.534)" fill="white" fill-opacity="0.5"/>
<circle cx="218.769" cy="160.269" r="0.5" transform="rotate(-9.72162 218.769 160.269)" fill="white" fill-opacity="0.4"/>
<circle cx="275.769" cy="404.146" r="0.5" transform="rotate(-9.72162 275.769 404.146)" fill="white" fill-opacity="0.5"/>
<circle cx="378.275" cy="386.584" r="0.5" transform="rotate(-9.72162 378.275 386.584)" fill="white" fill-opacity="0.3"/>
<circle cx="342.367" cy="158.495" r="0.622316" transform="rotate(-9.72162 342.367 158.495)" fill="white" fill-opacity="0.4"/>
<circle cx="320.328" cy="587.251" r="0.5" transform="rotate(-9.72162 320.328 587.251)" fill="white" fill-opacity="0.4"/>
<circle cx="999.963" cy="260.799" r="0.5" transform="rotate(-9.72162 999.963 260.799)" fill="white" fill-opacity="0.5"/>
<circle cx="807.814" cy="341.403" r="0.5" transform="rotate(-9.72162 807.814 341.403)" fill="white" fill-opacity="0.4"/>
<circle cx="208.855" cy="439.959" r="0.5" transform="rotate(-9.72162 208.855 439.959)" fill="white" fill-opacity="0.4"/>
<circle cx="505.444" cy="169.06" r="0.573634" transform="rotate(-9.72162 505.444 169.06)" fill="white" fill-opacity="0.5"/>
<circle cx="440.082" cy="219.83" r="0.577696" transform="rotate(-9.72162 440.082 219.83)" fill="white" fill-opacity="0.6"/>
<circle cx="935.367" cy="558.104" r="0.628323" transform="rotate(-9.72162 935.367 558.104)" fill="white" fill-opacity="0.4"/>
<circle cx="882.789" cy="588.469" r="0.678263" transform="rotate(-9.72162 882.789 588.469)" fill="white" fill-opacity="0.6"/>
<circle cx="804.508" cy="446.47" r="0.5" transform="rotate(-9.72162 804.508 446.47)" fill="white" fill-opacity="0.5"/>
<circle cx="778.075" cy="380.129" r="0.648008" transform="rotate(-9.72162 778.075 380.129)" fill="white" fill-opacity="0.5"/>
<circle cx="797.486" cy="150.467" r="0.56153" transform="rotate(-9.72162 797.486 150.467)" fill="white" fill-opacity="0.5"/>
<circle cx="56.7953" cy="369.626" r="0.5" transform="rotate(-9.72162 56.7953 369.626)" fill="white" fill-opacity="0.5"/>
<circle cx="349.094" cy="216.091" r="0.527582" transform="rotate(-9.72162 349.094 216.091)" fill="white" fill-opacity="0.4"/>
<circle cx="990.239" cy="73.755" r="0.5" transform="rotate(-9.72162 990.239 73.755)" fill="white" fill-opacity="0.5"/>
<circle cx="343.349" cy="188.639" r="0.5" transform="rotate(-9.72162 343.349 188.639)" fill="white" fill-opacity="0.4"/>
<circle cx="479.429" cy="651.305" r="0.5" transform="rotate(-9.72162 479.429 651.305)" fill="white" fill-opacity="0.5"/>
<circle cx="925.233" cy="564.794" r="0.510802" transform="rotate(-9.72162 925.233 564.794)" fill="white" fill-opacity="0.5"/>
<circle cx="903.536" cy="130.215" r="0.508851" transform="rotate(-9.72162 903.536 130.215)" fill="white" fill-opacity="0.4"/>
<circle cx="399.596" cy="148.745" r="0.676017" transform="rotate(-9.72162 399.596 148.745)" fill="white" fill-opacity="0.6"/>
<circle cx="241.615" cy="631.173" r="0.5" transform="rotate(-9.72162 241.615 631.173)" fill="white" fill-opacity="0.4"/>
<circle cx="355.791" cy="504.068" r="0.5" transform="rotate(-9.72162 355.791 504.068)" fill="white" fill-opacity="0.6"/>
<circle cx="192.45" cy="592.926" r="0.5" transform="rotate(-9.72162 192.45 592.926)" fill="white" fill-opacity="0.4"/>
<circle cx="856.83" cy="455.768" r="0.5" transform="rotate(-9.72162 856.83 455.768)" fill="white" fill-opacity="0.5"/>
<circle cx="651.641" cy="560.927" r="0.5" transform="rotate(-9.72162 651.641 560.927)" fill="white" fill-opacity="0.6"/>
<circle cx="175.835" cy="507.547" r="0.54104" transform="rotate(-9.72162 175.835 507.547)" fill="white" fill-opacity="0.6"/>
<circle cx="191.327" cy="195.423" r="0.51562" transform="rotate(-9.72162 191.327 195.423)" fill="white" fill-opacity="0.3"/>
<circle cx="876.587" cy="571.088" r="0.5" transform="rotate(-9.72162 876.587 571.088)" fill="white" fill-opacity="0.5"/>
<circle cx="329.474" cy="295.757" r="0.736917" transform="rotate(-9.72162 329.474 295.757)" fill="white" fill-opacity="0.6"/>
<circle cx="709.7" cy="94.4238" r="0.5" transform="rotate(-9.72162 709.7 94.4238)" fill="white" fill-opacity="0.4"/>
<circle cx="963.272" cy="508.552" r="0.5" transform="rotate(-9.72162 963.272 508.552)" fill="white" fill-opacity="0.3"/>
<circle cx="485.026" cy="553.056" r="0.60713" transform="rotate(-9.72162 485.026 553.056)" fill="white" fill-opacity="0.4"/>
<circle cx="975.615" cy="621.226" r="0.640076" transform="rotate(-9.72162 975.615 621.226)" fill="white" fill-opacity="0.3"/>
<circle cx="479.198" cy="169.548" r="0.622232" transform="rotate(-9.72162 479.198 169.548)" fill="white" fill-opacity="0.5"/>
<circle cx="92.7207" cy="235.666" r="0.530135" transform="rotate(-9.72162 92.7207 235.666)" fill="white" fill-opacity="0.5"/>
<circle cx="835.333" cy="649.308" r="0.630537" transform="rotate(-9.72162 835.333 649.308)" fill="white" fill-opacity="0.5"/>
<circle cx="991.753" cy="408.303" r="0.5" transform="rotate(-9.72162 991.753 408.303)" fill="white" fill-opacity="0.6"/>
<circle cx="603.794" cy="305.336" r="0.5" transform="rotate(-9.72162 603.794 305.336)" fill="white" fill-opacity="0.6"/>
<circle cx="346.074" cy="624.521" r="0.583016" transform="rotate(-9.72162 346.074 624.521)" fill="white" fill-opacity="0.5"/>
<circle cx="147.582" cy="520.472" r="0.510443" transform="rotate(-9.72162 147.582 520.472)" fill="white" fill-opacity="0.6"/>
<circle cx="167.396" cy="594.256" r="0.580658" transform="rotate(-9.72162 167.396 594.256)" fill="white" fill-opacity="0.4"/>
<circle cx="393.876" cy="595.109" r="0.665193" transform="rotate(-9.72162 393.876 595.109)" fill="white" fill-opacity="0.5"/>
<circle cx="176.227" cy="480.106" r="0.560482" transform="rotate(-9.72162 176.227 480.106)" fill="white" fill-opacity="0.4"/>
<circle cx="587.13" cy="640.017" r="0.560922" transform="rotate(-9.72162 587.13 640.017)" fill="white" fill-opacity="0.6"/>
<circle cx="87.1202" cy="203.12" r="0.505818" transform="rotate(-9.72162 87.1202 203.12)" fill="white" fill-opacity="0.4"/>
<circle cx="923.795" cy="467.631" r="0.5" transform="rotate(-9.72162 923.795 467.631)" fill="white" fill-opacity="0.4"/>
<circle cx="238.567" cy="197.662" r="0.699715" transform="rotate(-9.72162 238.567 197.662)" fill="white" fill-opacity="0.5"/>
<circle cx="660.863" cy="484.299" r="0.529863" transform="rotate(-9.72162 660.863 484.299)" fill="white" fill-opacity="0.5"/>
<circle cx="404.025" cy="554.649" r="0.5" transform="rotate(-9.72162 404.025 554.649)" fill="white" fill-opacity="0.4"/>
<circle cx="985.174" cy="279.786" r="0.717357" transform="rotate(-9.72162 985.174 279.786)" fill="white" fill-opacity="0.3"/>
<circle cx="1005.7" cy="417.308" r="0.731388" transform="rotate(-9.72162 1005.7 417.308)" fill="white" fill-opacity="0.4"/>
<circle cx="953.003" cy="257.893" r="0.70595" transform="rotate(-9.72162 953.003 257.893)" fill="white" fill-opacity="0.6"/>
<circle cx="903.719" cy="639.656" r="0.66439" transform="rotate(-9.72162 903.719 639.656)" fill="white" fill-opacity="0.4"/>
<circle cx="871.71" cy="74.7846" r="0.5" transform="rotate(-9.72162 871.71 74.7846)" fill="white" fill-opacity="0.5"/>
<circle cx="330.091" cy="673.846" r="0.5" transform="rotate(-9.72162 330.091 673.846)" fill="white" fill-opacity="0.3"/>
<circle cx="384.558" cy="358.114" r="0.5" transform="rotate(-9.72162 384.558 358.114)" fill="white" fill-opacity="0.3"/>
<circle cx="1004.61" cy="489.295" r="0.5" transform="rotate(-9.72162 1004.61 489.295)" fill="white" fill-opacity="0.5"/>
<circle cx="999.931" cy="290.227" r="0.5" transform="rotate(-9.72162 999.931 290.227)" fill="white" fill-opacity="0.5"/>
<circle cx="877.897" cy="513.115" r="0.580391" transform="rotate(-9.72162 877.897 513.115)" fill="white" fill-opacity="0.4"/>
<circle cx="302.326" cy="510.418" r="0.730357" transform="rotate(-9.72162 302.326 510.418)" fill="white" fill-opacity="0.5"/>
<circle cx="513.683" cy="335.132" r="0.651682" transform="rotate(-9.72162 513.683 335.132)" fill="white" fill-opacity="0.6"/>
<circle cx="216.946" cy="629.312" r="0.5" transform="rotate(-9.72162 216.946 629.312)" fill="white" fill-opacity="0.5"/>
<circle cx="112.42" cy="604.735" r="0.625077" transform="rotate(-9.72162 112.42 604.735)" fill="white" fill-opacity="0.3"/>
<circle cx="825.283" cy="384.078" r="0.51211" transform="rotate(-9.72162 825.283 384.078)" fill="white" fill-opacity="0.4"/>
<circle cx="412.523" cy="616.097" r="0.5" transform="rotate(-9.72162 412.523 616.097)" fill="white" fill-opacity="0.5"/>
<circle cx="809.677" cy="571.391" r="0.5" transform="rotate(-9.72162 809.677 571.391)" fill="white" fill-opacity="0.4"/>
<circle cx="300.551" cy="394.827" r="0.5" transform="rotate(-9.72162 300.551 394.827)" fill="white" fill-opacity="0.3"/>
<circle cx="729.727" cy="631.762" r="0.503817" transform="rotate(-9.72162 729.727 631.762)" fill="white" fill-opacity="0.5"/>
<circle cx="312.058" cy="294.696" r="0.749723" transform="rotate(-9.72162 312.058 294.696)" fill="white" fill-opacity="0.6"/>
<circle cx="559.661" cy="425.694" r="0.676812" transform="rotate(-9.72162 559.661 425.694)" fill="white" fill-opacity="0.5"/>
<circle cx="869.603" cy="299.365" r="0.5" transform="rotate(-9.72162 869.603 299.365)" fill="white" fill-opacity="0.6"/>
<circle cx="1008.41" cy="564.738" r="0.5" transform="rotate(-9.72162 1008.41 564.738)" fill="white" fill-opacity="0.5"/>
<circle cx="869.641" cy="256.95" r="0.699671" transform="rotate(-9.72162 869.641 256.95)" fill="white" fill-opacity="0.6"/>
<circle cx="241.248" cy="267.12" r="0.613193" transform="rotate(-9.72162 241.248 267.12)" fill="white" fill-opacity="0.3"/>
<circle cx="727.355" cy="653.471" r="0.5" transform="rotate(-9.72162 727.355 653.471)" fill="white" fill-opacity="0.4"/>
<circle cx="770.606" cy="147.907" r="0.5" transform="rotate(-9.72162 770.606 147.907)" fill="white" fill-opacity="0.6"/>
<circle cx="272.943" cy="150.09" r="0.615095" transform="rotate(-9.72162 272.943 150.09)" fill="white" fill-opacity="0.5"/>
<circle cx="815.55" cy="232.54" r="0.507089" transform="rotate(-9.72162 815.55 232.54)" fill="white" fill-opacity="0.4"/>
<circle cx="983.959" cy="374.206" r="0.576308" transform="rotate(-9.72162 983.959 374.206)" fill="white" fill-opacity="0.5"/>
<circle cx="565.189" cy="192.272" r="0.541157" transform="rotate(-9.72162 565.189 192.272)" fill="white" fill-opacity="0.6"/>
<circle cx="197.926" cy="221.746" r="0.575393" transform="rotate(-9.72162 197.926 221.746)" fill="white" fill-opacity="0.4"/>
<circle cx="529.423" cy="409.498" r="0.608071" transform="rotate(-9.72162 529.423 409.498)" fill="white" fill-opacity="0.5"/>
<circle cx="744.007" cy="394.139" r="0.704303" transform="rotate(-9.72162 744.007 394.139)" fill="white" fill-opacity="0.4"/>
<g filter="url(#filter0_d_38_5701)">
<circle cx="93.5874" cy="506.526" r="0.646656" transform="rotate(-9.72162 93.5874 506.526)" fill="white" fill-opacity="0.6" shape-rendering="crispEdges"/>
</g>
<circle cx="240.453" cy="292.543" r="0.536546" transform="rotate(-9.72162 240.453 292.543)" fill="white" fill-opacity="0.4"/>
<circle cx="616.188" cy="311.506" r="0.674273" transform="rotate(-9.72162 616.188 311.506)" fill="white" fill-opacity="0.6"/>
<circle cx="596.751" cy="446.737" r="0.681141" transform="rotate(-9.72162 596.751 446.737)" fill="white" fill-opacity="0.3"/>
<circle cx="944.379" cy="475.265" r="0.5" transform="rotate(-9.72162 944.379 475.265)" fill="white" fill-opacity="0.4"/>
<circle cx="241.649" cy="566.235" r="0.5" transform="rotate(-9.72162 241.649 566.235)" fill="white" fill-opacity="0.6"/>
<circle cx="462.229" cy="592.363" r="0.5" transform="rotate(-9.72162 462.229 592.363)" fill="white" fill-opacity="0.4"/>
<circle cx="508.807" cy="313.493" r="0.5" transform="rotate(-9.72162 508.807 313.493)" fill="white" fill-opacity="0.5"/>
<circle cx="579.684" cy="354.108" r="0.5" transform="rotate(-9.72162 579.684 354.108)" fill="white" fill-opacity="0.3"/>
<circle cx="162.318" cy="529.166" r="0.567091" transform="rotate(-9.72162 162.318 529.166)" fill="white" fill-opacity="0.5"/>
<circle cx="550.77" cy="201.993" r="0.687658" transform="rotate(-9.72162 550.77 201.993)" fill="white" fill-opacity="0.4"/>
<circle cx="764.613" cy="639.986" r="0.5" transform="rotate(-9.72162 764.613 639.986)" fill="white" fill-opacity="0.4"/>
<circle cx="131.669" cy="421.731" r="0.5" transform="rotate(-9.72162 131.669 421.731)" fill="white" fill-opacity="0.3"/>
<circle cx="613.14" cy="336.201" r="0.5" transform="rotate(-9.72162 613.14 336.201)" fill="white" fill-opacity="0.5"/>
<circle cx="920.662" cy="538.173" r="0.5" transform="rotate(-9.72162 920.662 538.173)" fill="white" fill-opacity="0.5"/>
<circle cx="861.852" cy="141.435" r="0.528502" transform="rotate(-9.72162 861.852 141.435)" fill="white" fill-opacity="0.5"/>
<circle cx="56.8614" cy="275.26" r="0.5" transform="rotate(-9.72162 56.8614 275.26)" fill="white" fill-opacity="0.4"/>
<circle cx="614.638" cy="558.135" r="0.5" transform="rotate(-9.72162 614.638 558.135)" fill="white" fill-opacity="0.5"/>
<circle cx="809.378" cy="468.971" r="0.5" transform="rotate(-9.72162 809.378 468.971)" fill="white" fill-opacity="0.4"/>
<circle cx="172.164" cy="651.333" r="0.642424" transform="rotate(-9.72162 172.164 651.333)" fill="white" fill-opacity="0.5"/>
<circle cx="523.807" cy="140.475" r="0.5" transform="rotate(-9.72162 523.807 140.475)" fill="white" fill-opacity="0.3"/>
<circle cx="347.287" cy="223.474" r="0.5" transform="rotate(-9.72162 347.287 223.474)" fill="white" fill-opacity="0.6"/>
<circle cx="762.875" cy="249.843" r="0.666648" transform="rotate(-9.72162 762.875 249.843)" fill="white" fill-opacity="0.6"/>
<circle cx="470.96" cy="335.223" r="0.527093" transform="rotate(-9.72162 470.96 335.223)" fill="white" fill-opacity="0.4"/>
<circle cx="155.952" cy="308.119" r="0.619485" transform="rotate(-9.72162 155.952 308.119)" fill="white" fill-opacity="0.5"/>
<circle cx="396.95" cy="541.849" r="0.688639" transform="rotate(-9.72162 396.95 541.849)" fill="white" fill-opacity="0.4"/>
<circle cx="185.011" cy="365.922" r="0.5" transform="rotate(-9.72162 185.011 365.922)" fill="white" fill-opacity="0.4"/>
<circle cx="378.319" cy="202.986" r="0.545328" transform="rotate(-9.72162 378.319 202.986)" fill="white" fill-opacity="0.6"/>
<circle cx="488.996" cy="262.231" r="0.629038" transform="rotate(-9.72162 488.996 262.231)" fill="white" fill-opacity="0.4"/>
<circle cx="334.101" cy="411.633" r="0.730337" transform="rotate(-9.72162 334.101 411.633)" fill="white" fill-opacity="0.3"/>
<circle cx="300.641" cy="342.054" r="0.5" transform="rotate(-9.72162 300.641 342.054)" fill="white" fill-opacity="0.6"/>
<circle cx="930.017" cy="207.85" r="0.5" transform="rotate(-9.72162 930.017 207.85)" fill="white" fill-opacity="0.6"/>
<circle cx="812.601" cy="309.276" r="0.642742" transform="rotate(-9.72162 812.601 309.276)" fill="white" fill-opacity="0.4"/>
<circle cx="601.487" cy="558.359" r="0.5" transform="rotate(-9.72162 601.487 558.359)" fill="white" fill-opacity="0.5"/>
<circle cx="331.19" cy="662.497" r="0.5" transform="rotate(-9.72162 331.19 662.497)" fill="white" fill-opacity="0.4"/>
<circle cx="855.211" cy="316.035" r="0.5" transform="rotate(-9.72162 855.211 316.035)" fill="white" fill-opacity="0.4"/>
<circle cx="352.624" cy="443.794" r="0.556701" transform="rotate(-9.72162 352.624 443.794)" fill="white" fill-opacity="0.5"/>
<circle cx="643.249" cy="618.221" r="0.554277" transform="rotate(-9.72162 643.249 618.221)" fill="white" fill-opacity="0.5"/>
<circle cx="505.676" cy="638.691" r="0.5" transform="rotate(-9.72162 505.676 638.691)" fill="white" fill-opacity="0.4"/>
<circle cx="172.508" cy="463.616" r="0.679389" transform="rotate(-9.72162 172.508 463.616)" fill="white" fill-opacity="0.6"/>
<circle cx="412.334" cy="538.007" r="0.5" transform="rotate(-9.72162 412.334 538.007)" fill="white" fill-opacity="0.5"/>
<circle cx="707.297" cy="227.847" r="0.601689" transform="rotate(-9.72162 707.297 227.847)" fill="white" fill-opacity="0.4"/>
<circle cx="859.339" cy="428.96" r="0.5" transform="rotate(-9.72162 859.339 428.96)" fill="white" fill-opacity="0.5"/>
<circle cx="577.788" cy="501.749" r="0.700981" transform="rotate(-9.72162 577.788 501.749)" fill="white" fill-opacity="0.5"/>
<circle cx="883.596" cy="594.237" r="0.5" transform="rotate(-9.72162 883.596 594.237)" fill="white" fill-opacity="0.4"/>
<circle cx="692.039" cy="405.879" r="0.5" transform="rotate(-9.72162 692.039 405.879)" fill="white" fill-opacity="0.5"/>
<circle cx="414.645" cy="420.11" r="0.686183" transform="rotate(-9.72162 414.645 420.11)" fill="white" fill-opacity="0.4"/>
<circle cx="904.933" cy="73.1697" r="0.518408" transform="rotate(-9.72162 904.933 73.1697)" fill="white" fill-opacity="0.3"/>
<circle cx="902.194" cy="74.6965" r="0.560663" transform="rotate(-9.72162 902.194 74.6965)" fill="white" fill-opacity="0.4"/>
<circle cx="478.562" cy="514.702" r="0.712693" transform="rotate(-9.72162 478.562 514.702)" fill="white" fill-opacity="0.3"/>
<circle cx="380.108" cy="645.135" r="0.647229" transform="rotate(-9.72162 380.108 645.135)" fill="white" fill-opacity="0.4"/>
<circle cx="754.98" cy="174.964" r="0.529359" transform="rotate(-9.72162 754.98 174.964)" fill="white" fill-opacity="0.5"/>
<circle cx="521.213" cy="669.605" r="0.593507" transform="rotate(-9.72162 521.213 669.605)" fill="white" fill-opacity="0.4"/>
<circle cx="241.799" cy="495.314" r="0.623172" transform="rotate(-9.72162 241.799 495.314)" fill="white" fill-opacity="0.3"/>
<circle cx="765.531" cy="348.734" r="0.585558" transform="rotate(-9.72162 765.531 348.734)" fill="white" fill-opacity="0.5"/>
<circle cx="878.505" cy="268.418" r="0.5" transform="rotate(-9.72162 878.505 268.418)" fill="white" fill-opacity="0.3"/>
<circle cx="730.274" cy="208.589" r="0.5" transform="rotate(-9.72162 730.274 208.589)" fill="white" fill-opacity="0.3"/>
<circle cx="176.768" cy="441.511" r="0.611064" transform="rotate(-9.72162 176.768 441.511)" fill="white" fill-opacity="0.4"/>
<circle cx="432.856" cy="604.497" r="0.5" transform="rotate(-9.72162 432.856 604.497)" fill="white" fill-opacity="0.4"/>
<circle cx="98.1737" cy="540.087" r="0.5" transform="rotate(-9.72162 98.1737 540.087)" fill="white" fill-opacity="0.5"/>
<circle cx="112.022" cy="330.742" r="0.5" transform="rotate(-9.72162 112.022 330.742)" fill="white" fill-opacity="0.4"/>
<circle cx="285.36" cy="589.363" r="0.677244" transform="rotate(-9.72162 285.36 589.363)" fill="white" fill-opacity="0.6"/>
<circle cx="947.56" cy="339.793" r="0.51071" transform="rotate(-9.72162 947.56 339.793)" fill="white" fill-opacity="0.4"/>
<circle cx="208.105" cy="227.215" r="0.684471" transform="rotate(-9.72162 208.105 227.215)" fill="white" fill-opacity="0.3"/>
<circle cx="285.397" cy="311.347" r="0.659595" transform="rotate(-9.72162 285.397 311.347)" fill="white" fill-opacity="0.4"/>
<circle cx="539.749" cy="648.072" r="0.5" transform="rotate(-9.72162 539.749 648.072)" fill="white" fill-opacity="0.5"/>
<circle cx="458.608" cy="482.395" r="0.5" transform="rotate(-9.72162 458.608 482.395)" fill="white" fill-opacity="0.5"/>
<circle cx="434.86" cy="473.39" r="0.614026" transform="rotate(-9.72162 434.86 473.39)" fill="white" fill-opacity="0.5"/>
<circle cx="626.06" cy="393.847" r="0.5" transform="rotate(-9.72162 626.06 393.847)" fill="white" fill-opacity="0.4"/>
<circle cx="980.057" cy="221.597" r="0.5" transform="rotate(-9.72162 980.057 221.597)" fill="white" fill-opacity="0.5"/>
<circle cx="591.624" cy="185.855" r="0.680121" transform="rotate(-9.72162 591.624 185.855)" fill="white" fill-opacity="0.4"/>
<circle cx="497.499" cy="466.601" r="0.5" transform="rotate(-9.72162 497.499 466.601)" fill="white" fill-opacity="0.5"/>
<circle cx="717.996" cy="474.481" r="0.5" transform="rotate(-9.72162 717.996 474.481)" fill="white" fill-opacity="0.5"/>
<circle cx="891.952" cy="186.117" r="0.651355" transform="rotate(-9.72162 891.952 186.117)" fill="white" fill-opacity="0.5"/>
<circle cx="437.671" cy="454.59" r="0.559374" transform="rotate(-9.72162 437.671 454.59)" fill="white" fill-opacity="0.4"/>
<circle cx="370.142" cy="333.191" r="0.5" transform="rotate(-9.72162 370.142 333.191)" fill="white" fill-opacity="0.4"/>
<circle cx="622.167" cy="187.542" r="0.5" transform="rotate(-9.72162 622.167 187.542)" fill="white" fill-opacity="0.5"/>
<circle cx="512.523" cy="553.453" r="0.642402" transform="rotate(-9.72162 512.523 553.453)" fill="white" fill-opacity="0.4"/>
<circle cx="584.705" cy="145.447" r="0.683973" transform="rotate(-9.72162 584.705 145.447)" fill="white" fill-opacity="0.4"/>
<circle cx="820.185" cy="532.052" r="0.5" transform="rotate(-9.72162 820.185 532.052)" fill="white" fill-opacity="0.3"/>
<circle cx="214.692" cy="401.646" r="0.722506" transform="rotate(-9.72162 214.692 401.646)" fill="white" fill-opacity="0.4"/>
<circle cx="361.518" cy="323.624" r="0.614516" transform="rotate(-9.72162 361.518 323.624)" fill="white" fill-opacity="0.5"/>
<circle cx="428.631" cy="615.366" r="0.5" transform="rotate(-9.72162 428.631 615.366)" fill="white" fill-opacity="0.4"/>
<circle cx="73.665" cy="355.576" r="0.5" transform="rotate(-9.72162 73.665 355.576)" fill="white" fill-opacity="0.5"/>
<circle cx="152.417" cy="211.204" r="0.5" transform="rotate(-9.72162 152.417 211.204)" fill="white" fill-opacity="0.4"/>
<circle cx="461.812" cy="185.832" r="0.736799" transform="rotate(-9.72162 461.812 185.832)" fill="white" fill-opacity="0.6"/>
<circle cx="932.635" cy="181.118" r="0.594452" transform="rotate(-9.72162 932.635 181.118)" fill="white" fill-opacity="0.4"/>
<circle cx="484.638" cy="627.273" r="0.69268" transform="rotate(-9.72162 484.638 627.273)" fill="white" fill-opacity="0.3"/>
<circle cx="118.38" cy="391.542" r="0.5" transform="rotate(-9.72162 118.38 391.542)" fill="white" fill-opacity="0.4"/>
<circle cx="526.336" cy="190.77" r="0.5" transform="rotate(-9.72162 526.336 190.77)" fill="white" fill-opacity="0.6"/>
<circle cx="821.971" cy="418.114" r="0.5" transform="rotate(-9.72162 821.971 418.114)" fill="white" fill-opacity="0.5"/>
<circle cx="117.822" cy="340.909" r="0.5" transform="rotate(-9.72162 117.822 340.909)" fill="white" fill-opacity="0.4"/>
<circle cx="890.659" cy="374.894" r="0.5" transform="rotate(-9.72162 890.659 374.894)" fill="white" fill-opacity="0.6"/>
<circle cx="817.941" cy="181.395" r="0.5" transform="rotate(-9.72162 817.941 181.395)" fill="white" fill-opacity="0.5"/>
<circle cx="642.544" cy="294.639" r="0.5" transform="rotate(-9.72162 642.544 294.639)" fill="white" fill-opacity="0.5"/>
<circle cx="382.244" cy="137.335" r="0.5" transform="rotate(-9.72162 382.244 137.335)" fill="white" fill-opacity="0.5"/>
<circle cx="679.495" cy="320.781" r="0.505851" transform="rotate(-9.72162 679.495 320.781)" fill="white" fill-opacity="0.6"/>
<circle cx="317.919" cy="483.338" r="0.672336" transform="rotate(-9.72162 317.919 483.338)" fill="white" fill-opacity="0.4"/>
<circle cx="753.85" cy="150.778" r="0.5" transform="rotate(-9.72162 753.85 150.778)" fill="white" fill-opacity="0.6"/>
<circle cx="59.2556" cy="531.609" r="0.572293" transform="rotate(-9.72162 59.2556 531.609)" fill="white" fill-opacity="0.5"/>
<circle cx="253.004" cy="187.954" r="0.568928" transform="rotate(-9.72162 253.004 187.954)" fill="white" fill-opacity="0.3"/>
<circle cx="395.603" cy="243.797" r="0.689612" transform="rotate(-9.72162 395.603 243.797)" fill="white" fill-opacity="0.5"/>
<circle cx="1000.5" cy="524.495" r="0.5" transform="rotate(-9.72162 1000.5 524.495)" fill="white" fill-opacity="0.4"/>
<circle cx="498.762" cy="360.089" r="0.730537" transform="rotate(-9.72162 498.762 360.089)" fill="white" fill-opacity="0.6"/>
<circle cx="546.124" cy="276.662" r="0.5" transform="rotate(-9.72162 546.124 276.662)" fill="white" fill-opacity="0.4"/>
<circle cx="945.743" cy="631.275" r="0.5" transform="rotate(-9.72162 945.743 631.275)" fill="white" fill-opacity="0.3"/>
<circle cx="800.461" cy="641.961" r="0.5" transform="rotate(-9.72162 800.461 641.961)" fill="white" fill-opacity="0.3"/>
<circle cx="922.657" cy="34.6046" r="0.5" transform="rotate(-9.72162 922.657 34.6046)" fill="white" fill-opacity="0.5"/>
<circle cx="541.853" cy="459.002" r="0.5" transform="rotate(-9.72162 541.853 459.002)" fill="white" fill-opacity="0.4"/>
<circle cx="593.035" cy="325.442" r="0.5" transform="rotate(-9.72162 593.035 325.442)" fill="white" fill-opacity="0.6"/>
<circle cx="316.988" cy="212.432" r="0.5" transform="rotate(-9.72162 316.988 212.432)" fill="white" fill-opacity="0.6"/>
<circle cx="69.8436" cy="274.05" r="0.5" transform="rotate(-9.72162 69.8436 274.05)" fill="white" fill-opacity="0.3"/>
<circle cx="235.151" cy="427.38" r="0.542016" transform="rotate(-9.72162 235.151 427.38)" fill="white" fill-opacity="0.5"/>
<circle cx="941.239" cy="616.828" r="0.5" transform="rotate(-9.72162 941.239 616.828)" fill="white" fill-opacity="0.5"/>
<circle cx="405.829" cy="263.159" r="0.5" transform="rotate(-9.72162 405.829 263.159)" fill="white" fill-opacity="0.3"/>
<circle cx="156.824" cy="663.001" r="0.552424" transform="rotate(-9.72162 156.824 663.001)" fill="white" fill-opacity="0.3"/>
<circle cx="764.699" cy="652.173" r="0.527252" transform="rotate(-9.72162 764.699 652.173)" fill="white" fill-opacity="0.5"/>
<circle cx="152.385" cy="270.082" r="0.52661" transform="rotate(-9.72162 152.385 270.082)" fill="white" fill-opacity="0.4"/>
<circle cx="876.776" cy="649.178" r="0.5" transform="rotate(-9.72162 876.776 649.178)" fill="white" fill-opacity="0.4"/>
<circle cx="937.671" cy="264.369" r="0.5" transform="rotate(-9.72162 937.671 264.369)" fill="white" fill-opacity="0.4"/>
<circle cx="486.437" cy="419.797" r="0.5" transform="rotate(-9.72162 486.437 419.797)" fill="white" fill-opacity="0.4"/>
<circle cx="436.96" cy="668.899" r="0.669935" transform="rotate(-9.72162 436.96 668.899)" fill="white" fill-opacity="0.4"/>
<circle cx="1007.19" cy="403.63" r="0.5" transform="rotate(-9.72162 1007.19 403.63)" fill="white" fill-opacity="0.6"/>
<circle cx="653.432" cy="666.135" r="0.5" transform="rotate(-9.72162 653.432 666.135)" fill="white" fill-opacity="0.4"/>
<circle cx="288.892" cy="166.57" r="0.552356" transform="rotate(-9.72162 288.892 166.57)" fill="white" fill-opacity="0.5"/>
<circle cx="670.544" cy="617.609" r="0.560416" transform="rotate(-9.72162 670.544 617.609)" fill="white" fill-opacity="0.5"/>
<circle cx="555.598" cy="562.273" r="0.609416" transform="rotate(-9.72162 555.598 562.273)" fill="white" fill-opacity="0.5"/>
<circle cx="689.387" cy="111.235" r="0.640165" transform="rotate(-9.72162 689.387 111.235)" fill="white" fill-opacity="0.4"/>
<circle cx="574.443" cy="649.231" r="0.5" transform="rotate(-9.72162 574.443 649.231)" fill="white" fill-opacity="0.6"/>
<circle cx="171.247" cy="303.348" r="0.5" transform="rotate(-9.72162 171.247 303.348)" fill="white" fill-opacity="0.4"/>
<circle cx="350.977" cy="255.535" r="0.722792" transform="rotate(-9.72162 350.977 255.535)" fill="white" fill-opacity="0.5"/>
<circle cx="319.093" cy="159.353" r="0.538109" transform="rotate(-9.72162 319.093 159.353)" fill="white" fill-opacity="0.6"/>
<circle cx="925.766" cy="270.671" r="0.701759" transform="rotate(-9.72162 925.766 270.671)" fill="white" fill-opacity="0.4"/>
<circle cx="575.554" cy="590.251" r="0.554496" transform="rotate(-9.72162 575.554 590.251)" fill="white" fill-opacity="0.5"/>
<circle cx="818.917" cy="542.415" r="0.5" transform="rotate(-9.72162 818.917 542.415)" fill="white" fill-opacity="0.5"/>
<circle cx="213.833" cy="232.134" r="0.5" transform="rotate(-9.72162 213.833 232.134)" fill="white" fill-opacity="0.6"/>
<circle cx="760.026" cy="607.291" r="0.5" transform="rotate(-9.72162 760.026 607.291)" fill="white" fill-opacity="0.4"/>
<circle cx="219.971" cy="244.272" r="0.5" transform="rotate(-9.72162 219.971 244.272)" fill="white" fill-opacity="0.5"/>
<circle cx="740.122" cy="153.192" r="0.561718" transform="rotate(-9.72162 740.122 153.192)" fill="white" fill-opacity="0.4"/>
<circle cx="508.927" cy="366.414" r="0.681498" transform="rotate(-9.72162 508.927 366.414)" fill="white" fill-opacity="0.3"/>
<circle cx="936.472" cy="144.855" r="0.5" transform="rotate(-9.72162 936.472 144.855)" fill="white" fill-opacity="0.5"/>
<circle cx="198.175" cy="275.625" r="0.722293" transform="rotate(-9.72162 198.175 275.625)" fill="white" fill-opacity="0.6"/>
<circle cx="386.904" cy="246.305" r="0.692696" transform="rotate(-9.72162 386.904 246.305)" fill="white" fill-opacity="0.5"/>
<circle cx="685.846" cy="381.575" r="0.5" transform="rotate(-9.72162 685.846 381.575)" fill="white" fill-opacity="0.6"/>
<circle cx="585.333" cy="641.344" r="0.565393" transform="rotate(-9.72162 585.333 641.344)" fill="white" fill-opacity="0.4"/>
<circle cx="487.48" cy="141.626" r="0.5" transform="rotate(-9.72162 487.48 141.626)" fill="white" fill-opacity="0.4"/>
<circle cx="256.645" cy="428.728" r="0.5" transform="rotate(-9.72162 256.645 428.728)" fill="white" fill-opacity="0.6"/>
<circle cx="950.636" cy="350.631" r="0.712746" transform="rotate(-9.72162 950.636 350.631)" fill="white" fill-opacity="0.3"/>
<circle cx="743.608" cy="617.329" r="0.622186" transform="rotate(-9.72162 743.608 617.329)" fill="white" fill-opacity="0.4"/>
<circle cx="884.474" cy="539.422" r="0.620681" transform="rotate(-9.72162 884.474 539.422)" fill="white" fill-opacity="0.6"/>
<circle cx="364.539" cy="330.092" r="0.5" transform="rotate(-9.72162 364.539 330.092)" fill="white" fill-opacity="0.6"/>
<circle cx="886.682" cy="215.303" r="0.52842" transform="rotate(-9.72162 886.682 215.303)" fill="white" fill-opacity="0.4"/>
<circle cx="784.471" cy="334.416" r="0.671731" transform="rotate(-9.72162 784.471 334.416)" fill="white" fill-opacity="0.4"/>
<circle cx="989.08" cy="108.449" r="0.5" transform="rotate(-9.72162 989.08 108.449)" fill="white" fill-opacity="0.4"/>
<circle cx="815.009" cy="478.152" r="0.5" transform="rotate(-9.72162 815.009 478.152)" fill="white" fill-opacity="0.4"/>
<circle cx="988.43" cy="400.756" r="0.5" transform="rotate(-9.72162 988.43 400.756)" fill="white" fill-opacity="0.6"/>
<circle cx="75.7506" cy="230.59" r="0.660999" transform="rotate(-9.72162 75.7506 230.59)" fill="white" fill-opacity="0.6"/>
<circle cx="660.906" cy="93.684" r="0.53133" transform="rotate(-9.72162 660.906 93.684)" fill="white" fill-opacity="0.5"/>
<circle cx="130.856" cy="387.375" r="0.5" transform="rotate(-9.72162 130.856 387.375)" fill="white" fill-opacity="0.5"/>
<circle cx="266.603" cy="433.174" r="0.564078" transform="rotate(-9.72162 266.603 433.174)" fill="white" fill-opacity="0.6"/>
<circle cx="462.976" cy="572.103" r="0.657687" transform="rotate(-9.72162 462.976 572.103)" fill="white" fill-opacity="0.3"/>
<circle cx="696.847" cy="284.551" r="0.726093" transform="rotate(-9.72162 696.847 284.551)" fill="white" fill-opacity="0.6"/>
<circle cx="534.819" cy="186.378" r="0.60272" transform="rotate(-9.72162 534.819 186.378)" fill="white" fill-opacity="0.4"/>
<circle cx="462.988" cy="335.646" r="0.598136" transform="rotate(-9.72162 462.988 335.646)" fill="white" fill-opacity="0.5"/>
<circle cx="449.093" cy="450.544" r="0.5" transform="rotate(-9.72162 449.093 450.544)" fill="white" fill-opacity="0.4"/>
<circle cx="542.288" cy="189.063" r="0.510589" transform="rotate(-9.72162 542.288 189.063)" fill="white" fill-opacity="0.6"/>
<circle cx="218.108" cy="469.026" r="0.711736" transform="rotate(-9.72162 218.108 469.026)" fill="white" fill-opacity="0.4"/>
<circle cx="245.278" cy="605.181" r="0.5" transform="rotate(-9.72162 245.278 605.181)" fill="white" fill-opacity="0.6"/>
<circle cx="239.643" cy="631.511" r="0.5" transform="rotate(-9.72162 239.643 631.511)" fill="white" fill-opacity="0.6"/>
<circle cx="762.405" cy="336.129" r="0.633596" transform="rotate(-9.72162 762.405 336.129)" fill="white" fill-opacity="0.5"/>
<circle cx="313.43" cy="493.154" r="0.589996" transform="rotate(-9.72162 313.43 493.154)" fill="white" fill-opacity="0.3"/>
<circle cx="169.55" cy="541.212" r="0.66174" transform="rotate(-9.72162 169.55 541.212)" fill="white" fill-opacity="0.4"/>
<circle cx="122.82" cy="210.187" r="0.5" transform="rotate(-9.72162 122.82 210.187)" fill="white" fill-opacity="0.6"/>
<circle cx="849.93" cy="663.966" r="0.542659" transform="rotate(-9.72162 849.93 663.966)" fill="white" fill-opacity="0.3"/>
<circle cx="42.3394" cy="190.495" r="0.5" transform="rotate(-9.72162 42.3394 190.495)" fill="white" fill-opacity="0.4"/>
<circle cx="954.906" cy="465.388" r="0.543095" transform="rotate(-9.72162 954.906 465.388)" fill="white" fill-opacity="0.5"/>
<circle cx="236.808" cy="549.817" r="0.5" transform="rotate(-9.72162 236.808 549.817)" fill="white" fill-opacity="0.3"/>
<circle cx="82.5691" cy="667.635" r="0.581512" transform="rotate(-9.72162 82.5691 667.635)" fill="white" fill-opacity="0.6"/>
<circle cx="144.235" cy="553.618" r="0.61477" transform="rotate(-9.72162 144.235 553.618)" fill="white" fill-opacity="0.6"/>
<circle cx="791.84" cy="182.852" r="0.528207" transform="rotate(-9.72162 791.84 182.852)" fill="white" fill-opacity="0.5"/>
<circle cx="816.402" cy="350.077" r="0.5" transform="rotate(-9.72162 816.402 350.077)" fill="white" fill-opacity="0.5"/>
<circle cx="631.768" cy="202.13" r="0.5" transform="rotate(-9.72162 631.768 202.13)" fill="white" fill-opacity="0.6"/>
<circle cx="872.854" cy="182.133" r="0.5" transform="rotate(-9.72162 872.854 182.133)" fill="white" fill-opacity="0.6"/>
<circle cx="276.892" cy="179.735" r="0.501713" transform="rotate(-9.72162 276.892 179.735)" fill="white" fill-opacity="0.3"/>
<circle cx="573.288" cy="203.2" r="0.679195" transform="rotate(-9.72162 573.288 203.2)" fill="white" fill-opacity="0.5"/>
<circle cx="579.533" cy="446.682" r="0.719608" transform="rotate(-9.72162 579.533 446.682)" fill="white" fill-opacity="0.5"/>
<circle cx="607.318" cy="539.098" r="0.5" transform="rotate(-9.72162 607.318 539.098)" fill="white" fill-opacity="0.4"/>
<circle cx="227.605" cy="223.687" r="0.5" transform="rotate(-9.72162 227.605 223.687)" fill="white" fill-opacity="0.4"/>
<circle cx="549.775" cy="297.435" r="0.590848" transform="rotate(-9.72162 549.775 297.435)" fill="white" fill-opacity="0.6"/>
<circle cx="892.794" cy="410.185" r="0.644424" transform="rotate(-9.72162 892.794 410.185)" fill="white" fill-opacity="0.4"/>
<circle cx="435.101" cy="410.329" r="0.5" transform="rotate(-9.72162 435.101 410.329)" fill="white" fill-opacity="0.6"/>
<circle cx="949.186" cy="567.881" r="0.598435" transform="rotate(-9.72162 949.186 567.881)" fill="white" fill-opacity="0.6"/>
<circle cx="394.069" cy="425.476" r="0.5" transform="rotate(-9.72162 394.069 425.476)" fill="white" fill-opacity="0.5"/>
<circle cx="908.687" cy="645.769" r="0.528804" transform="rotate(-9.72162 908.687 645.769)" fill="white" fill-opacity="0.5"/>
<circle cx="186.252" cy="349.477" r="0.5" transform="rotate(-9.72162 186.252 349.477)" fill="white" fill-opacity="0.4"/>
<circle cx="228.894" cy="555.478" r="0.743789" transform="rotate(-9.72162 228.894 555.478)" fill="white" fill-opacity="0.4"/>
<circle cx="65.1385" cy="535.771" r="0.667952" transform="rotate(-9.72162 65.1385 535.771)" fill="white" fill-opacity="0.5"/>
<g filter="url(#filter1_d_38_5701)">
<circle cx="986.686" cy="46.1225" r="0.6644" transform="rotate(-9.72162 986.686 46.1225)" fill="white" fill-opacity="0.6" shape-rendering="crispEdges"/>
</g>
<circle cx="835.441" cy="430.242" r="0.728148" transform="rotate(-9.72162 835.441 430.242)" fill="white" fill-opacity="0.4"/>
<circle cx="553.163" cy="560.551" r="0.5" transform="rotate(-9.72162 553.163 560.551)" fill="white" fill-opacity="0.6"/>
<circle cx="756.497" cy="65.1669" r="0.565405" transform="rotate(-9.72162 756.497 65.1669)" fill="white" fill-opacity="0.6"/>
<circle cx="473.293" cy="349" r="0.5" transform="rotate(-9.72162 473.293 349)" fill="white" fill-opacity="0.5"/>
<circle cx="803.453" cy="576.516" r="0.5" transform="rotate(-9.72162 803.453 576.516)" fill="white" fill-opacity="0.6"/>
<circle cx="824.138" cy="666.507" r="0.691774" transform="rotate(-9.72162 824.138 666.507)" fill="white" fill-opacity="0.6"/>
<circle cx="149.018" cy="404.555" r="0.5" transform="rotate(-9.72162 149.018 404.555)" fill="white" fill-opacity="0.4"/>
<circle cx="845.762" cy="189.818" r="0.5" transform="rotate(-9.72162 845.762 189.818)" fill="white" fill-opacity="0.6"/>
<circle cx="831.635" cy="290.694" r="0.541642" transform="rotate(-9.72162 831.635 290.694)" fill="white" fill-opacity="0.5"/>
<circle cx="250.993" cy="435.989" r="0.702448" transform="rotate(-9.72162 250.993 435.989)" fill="white" fill-opacity="0.4"/>
<circle cx="160.296" cy="558.051" r="0.696776" transform="rotate(-9.72162 160.296 558.051)" fill="white" fill-opacity="0.6"/>
<circle cx="699.53" cy="176.445" r="0.625519" transform="rotate(-9.72162 699.53 176.445)" fill="white" fill-opacity="0.4"/>
<circle cx="203.088" cy="655.021" r="0.5" transform="rotate(-9.72162 203.088 655.021)" fill="white" fill-opacity="0.4"/>
<circle cx="154.773" cy="277.834" r="0.570846" transform="rotate(-9.72162 154.773 277.834)" fill="white" fill-opacity="0.4"/>
<circle cx="834.468" cy="253.72" r="0.577184" transform="rotate(-9.72162 834.468 253.72)" fill="white" fill-opacity="0.4"/>
<circle cx="412.715" cy="149.364" r="0.502316" transform="rotate(-9.72162 412.715 149.364)" fill="white" fill-opacity="0.4"/>
<circle cx="409.961" cy="340.573" r="0.5" transform="rotate(-9.72162 409.961 340.573)" fill="white" fill-opacity="0.6"/>
<circle cx="349.09" cy="222.151" r="0.5" transform="rotate(-9.72162 349.09 222.151)" fill="white" fill-opacity="0.3"/>
<circle cx="235.325" cy="185.84" r="0.5" transform="rotate(-9.72162 235.325 185.84)" fill="white" fill-opacity="0.6"/>
<circle cx="249.288" cy="568.174" r="0.701738" transform="rotate(-9.72162 249.288 568.174)" fill="white" fill-opacity="0.3"/>
<circle cx="115.322" cy="184.095" r="0.515613" transform="rotate(-9.72162 115.322 184.095)" fill="white" fill-opacity="0.4"/>
<circle cx="384.699" cy="353.017" r="0.5" transform="rotate(-9.72162 384.699 353.017)" fill="white" fill-opacity="0.5"/>
<circle cx="408.191" cy="567.125" r="0.5" transform="rotate(-9.72162 408.191 567.125)" fill="white" fill-opacity="0.4"/>
<circle cx="829.245" cy="608.621" r="0.5" transform="rotate(-9.72162 829.245 608.621)" fill="white" fill-opacity="0.6"/>
<circle cx="565.512" cy="364.87" r="0.714554" transform="rotate(-9.72162 565.512 364.87)" fill="white" fill-opacity="0.4"/>
<circle cx="381.328" cy="552.451" r="0.5" transform="rotate(-9.72162 381.328 552.451)" fill="white" fill-opacity="0.3"/>
<circle cx="664.041" cy="467.491" r="0.5" transform="rotate(-9.72162 664.041 467.491)" fill="white" fill-opacity="0.5"/>
<circle cx="935.88" cy="159.161" r="0.5" transform="rotate(-9.72162 935.88 159.161)" fill="white" fill-opacity="0.6"/>
<circle cx="132.381" cy="615.392" r="0.5" transform="rotate(-9.72162 132.381 615.392)" fill="white" fill-opacity="0.6"/>
<circle cx="196.702" cy="557.822" r="0.618183" transform="rotate(-9.72162 196.702 557.822)" fill="white" fill-opacity="0.4"/>
<circle cx="635.749" cy="645.83" r="0.5" transform="rotate(-9.72162 635.749 645.83)" fill="white" fill-opacity="0.5"/>
<circle cx="133.925" cy="665.856" r="0.5" transform="rotate(-9.72162 133.925 665.856)" fill="white" fill-opacity="0.6"/>
<circle cx="440.023" cy="652.01" r="0.541229" transform="rotate(-9.72162 440.023 652.01)" fill="white" fill-opacity="0.6"/>
<defs>
<filter id="filter0_d_38_5701" x="77.9406" y="490.879" width="31.2935" height="31.2935" filterUnits="userSpaceOnUse" color-interpolation-filters="sRGB">
<feFlood flood-opacity="0" result="BackgroundImageFix"/>
<feColorMatrix in="SourceAlpha" type="matrix" values="0 0 0 0 0 0 0 0 0 0 0 0 0 0 0 0 0 0 127 0" result="hardAlpha"/>
<feMorphology radius="3" operator="dilate" in="SourceAlpha" result="effect1_dropShadow_38_5701"/>
<feOffset/>
<feGaussianBlur stdDeviation="6"/>
<feComposite in2="hardAlpha" operator="out"/>
<feColorMatrix type="matrix" values="0 0 0 0 1 0 0 0 0 1 0 0 0 0 1 0 0 0 0.3 0"/>
<feBlend mode="normal" in2="BackgroundImageFix" result="effect1_dropShadow_38_5701"/>
<feBlend mode="normal" in="SourceGraphic" in2="effect1_dropShadow_38_5701" result="shape"/>
</filter>
<filter id="filter1_d_38_5701" x="971.021" y="30.4579" width="31.329" height="31.329" filterUnits="userSpaceOnUse" color-interpolation-filters="sRGB">
<feFlood flood-opacity="0" result="BackgroundImageFix"/>
<feColorMatrix in="SourceAlpha" type="matrix" values="0 0 0 0 0 0 0 0 0 0 0 0 0 0 0 0 0 0 127 0" result="hardAlpha"/>
<feMorphology radius="3" operator="dilate" in="SourceAlpha" result="effect1_dropShadow_38_5701"/>
<feOffset/>
<feGaussianBlur stdDeviation="6"/>
<feComposite in2="hardAlpha" operator="out"/>
<feColorMatrix type="matrix" values="0 0 0 0 1 0 0 0 0 1 0 0 0 0 1 0 0 0 0.3 0"/>
<feBlend mode="normal" in2="BackgroundImageFix" result="effect1_dropShadow_38_5701"/>
<feBlend mode="normal" in="SourceGraphic" in2="effect1_dropShadow_38_5701" result="shape"/>
</filter>
</defs>
</svg>
